<svg width="181" height="36" viewBox="0 0 181 36" fill="none" xmlns="http://www.w3.org/2000/svg">
<path d="M19 23H10L19 14V23Z" fill="url(#paint0_linear_4_5)"/>
<path opacity="0.14" d="M19 23L14.3862 18.6897L15 18L19 23Z" fill="black"/>
<path d="M105 9.08432V12.1188C104.714 12.0778 104.469 12.0368 104.264 12.0368C102.997 12.0368 102.016 12.4058 101.321 13.144C100.625 13.8821 100.258 14.9072 100.258 16.2604V22.9035H97.0277V9.08432H100.094V11.2166C100.993 9.82243 102.629 9.08432 105 9.08432Z" fill="white"/>
<path d="M94.8199 16.9986H84.2718C84.4762 17.9827 84.9259 18.7618 85.7027 19.3769C86.4795 19.951 87.4608 20.2381 88.6055 20.2381C90.0773 20.2381 91.3039 19.746 92.2442 18.7618L94.0431 20.5661C93.4298 21.3042 92.5713 21.9603 91.6309 22.3294C90.6906 22.6984 89.6685 22.9035 88.5237 22.9035C87.0519 22.9035 85.7436 22.6164 84.6398 22.0013C83.5359 21.4272 82.6364 20.6071 82.0232 19.541C81.4099 18.4748 81.1237 17.2856 81.1237 15.9734C81.1237 14.6612 81.4099 13.472 82.0232 12.4468C82.6364 11.3807 83.4541 10.5605 84.5171 9.98646C85.5801 9.41237 86.7657 9.08432 88.074 9.08432C89.3823 9.08432 90.568 9.37136 91.5901 9.94545C92.6122 10.5195 93.4298 11.3397 94.0022 12.4058C94.5746 13.472 94.8608 14.6612 94.8608 16.0554C94.8608 16.2604 94.8608 16.5885 94.8199 16.9986ZM85.5392 12.5289C84.8442 13.144 84.4353 13.9231 84.2718 14.9072H91.8762C91.7536 13.9231 91.3447 13.144 90.6497 12.5289C89.9547 11.9138 89.0961 11.6267 88.074 11.6267C87.0519 11.6267 86.2342 11.9138 85.5392 12.5289Z" fill="white"/>
<path d="M81.2871 9.08432L75.318 22.9035H72.2108L66.2418 9.08432H69.5125L73.8462 19.2539L78.3026 9.08432H81.2871Z" fill="white"/>
<path d="M66.5283 16.9986H55.9802C56.1846 17.9827 56.6343 18.7618 57.4111 19.3769C58.1879 19.951 59.1691 20.2381 60.3139 20.2381C61.7857 20.2381 63.0122 19.746 63.9526 18.7618L65.7515 20.5661C65.1382 21.3042 64.2796 21.9603 63.3393 22.3294C62.399 22.6984 61.3769 22.9035 60.2321 22.9035C58.7603 22.9035 57.452 22.6164 56.3481 22.0013C55.2443 21.4272 54.3448 20.6071 53.7316 19.541C53.1183 18.4748 52.8321 17.2856 52.8321 15.9734C52.8321 14.6612 53.1183 13.472 53.7316 12.4468C54.3448 11.3807 55.1625 10.5605 56.2255 9.98646C57.2885 9.41237 58.4741 9.08432 59.7824 9.08432C61.0907 9.08432 62.2763 9.37136 63.2984 9.94545C64.3205 10.5195 65.1382 11.3397 65.7106 12.4058C66.283 13.472 66.5691 14.6612 66.5691 16.0554C66.5691 16.2604 66.5691 16.5885 66.5283 16.9986ZM57.2067 12.5289C56.5117 13.144 56.1028 13.9231 55.9393 14.9072H63.5437C63.4211 13.9231 63.0122 13.144 62.3172 12.5289C61.6222 11.9138 60.7636 11.6267 59.7415 11.6267C58.7603 11.6267 57.9017 11.9138 57.2067 12.5289Z" fill="white"/>
<path d="M46.8219 4.00001H49.97V22.904H46.8219V4.00001Z" fill="white"/>
<path d="M40.2805 9.08432H44.2053L35.6606 17.6957L33.6981 15.7274L40.2805 9.08432Z" fill="white"/>
<path d="M33.6981 15.6871L35.6197 13.7598L44.7368 22.9042H40.8528L33.6981 15.7281V15.6871Z" fill="white"/>
<path d="M34.1481 4H31V22.904H34.1481V4Z" fill="white"/>
<path d="M19 23H0V4L19 23Z" fill="url(#paint1_linear_4_5)"/>
<path d="M112.472 19.16L112.256 14.672L120.296 6.2H124.616L117.368 14L115.208 16.304L112.472 19.16ZM108.992 23V6.2H112.856V23H108.992ZM120.488 23L114.512 15.68L117.056 12.92L125.024 23H120.488ZM126.494 23V5.192H130.238V23H126.494ZM139.856 23.192C138.48 23.192 137.256 22.904 136.184 22.328C135.128 21.752 134.288 20.968 133.664 19.976C133.056 18.968 132.752 17.824 132.752 16.544C132.752 15.248 133.056 14.104 133.664 13.112C134.288 12.104 135.128 11.32 136.184 10.76C137.256 10.184 138.48 9.896 139.856 9.896C141.216 9.896 142.432 10.184 143.504 10.76C144.576 11.32 145.416 12.096 146.024 13.088C146.632 14.08 146.936 15.232 146.936 16.544C146.936 17.824 146.632 18.968 146.024 19.976C145.416 20.968 144.576 21.752 143.504 22.328C142.432 22.904 141.216 23.192 139.856 23.192ZM139.856 20.12C140.48 20.12 141.04 19.976 141.536 19.688C142.032 19.4 142.424 18.992 142.712 18.464C143 17.92 143.144 17.28 143.144 16.544C143.144 15.792 143 15.152 142.712 14.624C142.424 14.096 142.032 13.688 141.536 13.4C141.04 13.112 140.48 12.968 139.856 12.968C139.232 12.968 138.672 13.112 138.176 13.4C137.68 13.688 137.28 14.096 136.976 14.624C136.688 15.152 136.544 15.792 136.544 16.544C136.544 17.28 136.688 17.92 136.976 18.464C137.28 18.992 137.68 19.4 138.176 19.688C138.672 19.976 139.232 20.12 139.856 20.12ZM154.887 23.192C153.815 23.192 152.855 22.984 152.007 22.568C151.175 22.152 150.527 21.52 150.063 20.672C149.599 19.808 149.367 18.712 149.367 17.384V10.088H153.111V16.832C153.111 17.904 153.335 18.696 153.783 19.208C154.247 19.704 154.895 19.952 155.727 19.952C156.303 19.952 156.815 19.832 157.263 19.592C157.711 19.336 158.063 18.952 158.319 18.44C158.575 17.912 158.703 17.256 158.703 16.472V10.088H162.447V23H158.895V19.448L159.543 20.48C159.111 21.376 158.471 22.056 157.623 22.52C156.791 22.968 155.879 23.192 154.887 23.192ZM171.46 23.192C170.244 23.192 169.148 22.92 168.172 22.376C167.196 21.816 166.42 21.04 165.844 20.048C165.284 19.056 165.004 17.888 165.004 16.544C165.004 15.184 165.284 14.008 165.844 13.016C166.42 12.024 167.196 11.256 168.172 10.712C169.148 10.168 170.244 9.896 171.46 9.896C172.548 9.896 173.5 10.136 174.316 10.616C175.132 11.096 175.764 11.824 176.212 12.8C176.66 13.776 176.884 15.024 176.884 16.544C176.884 18.048 176.668 19.296 176.236 20.288C175.804 21.264 175.18 21.992 174.364 22.472C173.564 22.952 172.596 23.192 171.46 23.192ZM172.108 20.12C172.716 20.12 173.268 19.976 173.764 19.688C174.26 19.4 174.652 18.992 174.94 18.464C175.244 17.92 175.396 17.28 175.396 16.544C175.396 15.792 175.244 15.152 174.94 14.624C174.652 14.096 174.26 13.688 173.764 13.4C173.268 13.112 172.716 12.968 172.108 12.968C171.484 12.968 170.924 13.112 170.428 13.4C169.932 13.688 169.532 14.096 169.228 14.624C168.94 15.152 168.796 15.792 168.796 16.544C168.796 17.28 168.94 17.92 169.228 18.464C169.532 18.992 169.932 19.4 170.428 19.688C170.924 19.976 171.484 20.12 172.108 20.12ZM175.492 23V20.36L175.564 16.52L175.324 12.704V5.192H179.068V23H175.492Z" fill="url(#paint2_linear_4_5)"/>
<path d="M153.996 33V24.6H155.94V33H153.996ZM157.934 33V24.6H161.57C162.322 24.6 162.97 24.724 163.514 24.972C164.058 25.212 164.478 25.56 164.774 26.016C165.07 26.472 165.218 27.016 165.218 27.648C165.218 28.272 165.07 28.812 164.774 29.268C164.478 29.724 164.058 30.076 163.514 30.324C162.97 30.564 162.322 30.684 161.57 30.684H159.014L159.878 29.808V33H157.934ZM159.878 30.024L159.014 29.1H161.462C162.062 29.1 162.51 28.972 162.806 28.716C163.102 28.46 163.25 28.104 163.25 27.648C163.25 27.184 163.102 26.824 162.806 26.568C162.51 26.312 162.062 26.184 161.462 26.184H159.014L159.878 25.26V30.024ZM168.405 28.38H172.437V29.94H168.405V28.38ZM168.549 33H166.605V24.6H172.953V26.16H168.549V33ZM177.029 33.144C176.357 33.144 175.713 33.056 175.097 32.88C174.481 32.696 173.985 32.46 173.609 32.172L174.269 30.708C174.629 30.964 175.053 31.176 175.541 31.344C176.037 31.504 176.537 31.584 177.041 31.584C177.425 31.584 177.733 31.548 177.965 31.476C178.205 31.396 178.381 31.288 178.493 31.152C178.605 31.016 178.661 30.86 178.661 30.684C178.661 30.46 178.573 30.284 178.397 30.156C178.221 30.02 177.989 29.912 177.701 29.832C177.413 29.744 177.093 29.664 176.741 29.592C176.397 29.512 176.049 29.416 175.697 29.304C175.353 29.192 175.037 29.048 174.749 28.872C174.461 28.696 174.225 28.464 174.041 28.176C173.865 27.888 173.777 27.52 173.777 27.072C173.777 26.592 173.905 26.156 174.161 25.764C174.425 25.364 174.817 25.048 175.337 24.816C175.865 24.576 176.525 24.456 177.317 24.456C177.845 24.456 178.365 24.52 178.877 24.648C179.389 24.768 179.841 24.952 180.233 25.2L179.633 26.676C179.241 26.452 178.849 26.288 178.457 26.184C178.065 26.072 177.681 26.016 177.305 26.016C176.929 26.016 176.621 26.06 176.381 26.148C176.141 26.236 175.969 26.352 175.865 26.496C175.761 26.632 175.709 26.792 175.709 26.976C175.709 27.192 175.797 27.368 175.973 27.504C176.149 27.632 176.381 27.736 176.669 27.816C176.957 27.896 177.273 27.976 177.617 28.056C177.969 28.136 178.317 28.228 178.661 28.332C179.013 28.436 179.333 28.576 179.621 28.752C179.909 28.928 180.141 29.16 180.317 29.448C180.501 29.736 180.593 30.1 180.593 30.54C180.593 31.012 180.461 31.444 180.197 31.836C179.933 32.228 179.537 32.544 179.009 32.784C178.489 33.024 177.829 33.144 177.029 33.144Z" fill="url(#paint3_linear_4_5)"/>
<defs>
<linearGradient id="paint0_linear_4_5" x1="14.5" y1="13.9583" x2="14.5" y2="23.0181" gradientUnits="userSpaceOnUse">
<stop offset="2.71717e-07" stop-color="#FF4681"/>
<stop offset="1" stop-color="#9B44F6"/>
</linearGradient>
<linearGradient id="paint1_linear_4_5" x1="-4.52639" y1="8.97361" x2="14.5037" y2="28.0037" gradientUnits="userSpaceOnUse">
<stop offset="9.43019e-07" stop-color="#FF4681"/>
<stop offset="0.7392" stop-color="#9B44F6"/>
</linearGradient>
<linearGradient id="paint2_linear_4_5" x1="89.3709" y1="7.5913" x2="109.106" y2="57.9492" gradientUnits="userSpaceOnUse">
<stop offset="9.43019e-07" stop-color="#FF4681"/>
<stop offset="0.7392" stop-color="#9B44F6"/>
</linearGradient>
<linearGradient id="paint3_linear_4_5" x1="146.33" y1="24.9265" x2="158.837" y2="48.2736" gradientUnits="userSpaceOnUse">
<stop offset="9.43019e-07" stop-color="#FF4681"/>
<stop offset="0.7392" stop-color="#9B44F6"/>
</linearGradient>
</defs>
</svg>
