<svg width="145" height="29" viewBox="0 0 145 29" fill="none" xmlns="http://www.w3.org/2000/svg">
<path opacity="0.14" d="M24 23L19.3862 18.6897L20 18L24 23Z" fill="black"/>
<path d="M24 15.5C24 15.5 22.2341 13.6337 18.5 11.5C11.7567 7.64669 5.00001 8 5.00001 8L5.00001 10C5.00001 10 9.35518 9.852 13 11C16.366 12.0602 18.9755 13.8728 20.5 15C20.8578 15.2637 24 18 24 18L24 15.5Z" fill="white"/>
<path d="M24 23H15L24 14V23Z" fill="url(#paint0_linear_18_54)"/>
<path d="M24 23H5.00003V4.00003L24 23Z" fill="url(#paint1_linear_18_54)"/>
<path d="M0.0909741 13.803C0.466103 15.7111 1.86033 17.4793 3.25768 18.8061C4.98328 20.4464 7.06524 21.7824 9.21597 22.8324C12.6734 24.5245 17.5 25 20.5 25C22.1301 25 24 25 26.1562 23.3254C26.8251 22.4976 27.1034 21.4446 26.9658 20.4038C26.8001 19.15 26.1436 18.027 25.3402 17.0593C25.0026 16.6515 24 15.5 24 15.5072C24.0033 16.2883 24.0063 16.8377 24 17.5072C23.9969 17.6411 24.0063 17.8733 24 18.0072C24 17.9862 24 17.979 24 18C24.4095 18.8248 25.409 20.5925 25.0308 21.4842C24.7744 22.0929 24.2024 22.5342 23.5803 22.7898C22.2611 23.3315 20.698 23.3437 19.2976 23.2372C15.3056 22.9328 11.3386 21.4112 7.95304 19.3782C7.57166 19.15 7.19966 18.9065 6.83391 18.66C5.0583 17.4519 3.16703 15.912 2.31361 13.9217C1.87909 12.9082 2.26757 11.875 3 11C3.61031 10.2709 5 10 5 10L5.00003 8.00723C5.00003 8.00723 3.37916 8.43032 2.50003 9.00723C1.42492 9.71275 0.650541 10.4949 0.26916 11.4292C-0.0340687 12.1779 -0.0622034 13.0117 0.0909741 13.803Z" fill="white"/>
<path d="M110 9.08435V12.1188C109.714 12.0778 109.469 12.0368 109.264 12.0368C107.997 12.0368 107.016 12.4059 106.321 13.144C105.625 13.8821 105.258 14.9073 105.258 16.2605V22.9035H102.028V9.08435H105.094V11.2167C105.993 9.82247 107.629 9.08435 110 9.08435Z" fill="white"/>
<path d="M99.8199 16.9986H89.2718C89.4762 17.9827 89.9259 18.7619 90.7027 19.377C91.4795 19.951 92.4608 20.2381 93.6055 20.2381C95.0773 20.2381 96.3039 19.746 97.2442 18.7619L99.0431 20.5661C98.4298 21.3043 97.5713 21.9604 96.6309 22.3294C95.6906 22.6985 94.6685 22.9035 93.5237 22.9035C92.0519 22.9035 90.7436 22.6165 89.6398 22.0014C88.5359 21.4273 87.6364 20.6072 87.0232 19.541C86.4099 18.4748 86.1237 17.2856 86.1237 15.9734C86.1237 14.6612 86.4099 13.472 87.0232 12.4469C87.6364 11.3807 88.4541 10.5606 89.5171 9.98649C90.5801 9.4124 91.7657 9.08435 93.074 9.08435C94.3823 9.08435 95.568 9.3714 96.5901 9.94549C97.6122 10.5196 98.4298 11.3397 99.0022 12.4059C99.5746 13.472 99.8608 14.6612 99.8608 16.0554C99.8608 16.2605 99.8608 16.5885 99.8199 16.9986ZM90.5392 12.5289C89.8442 13.144 89.4353 13.9231 89.2718 14.9073H96.8762C96.7536 13.9231 96.3447 13.144 95.6497 12.5289C94.9547 11.9138 94.0961 11.6267 93.074 11.6267C92.0519 11.6267 91.2342 11.9138 90.5392 12.5289Z" fill="white"/>
<path d="M86.2871 9.08435L80.318 22.9035H77.2108L71.2418 9.08435H74.5125L78.8462 19.2539L83.3026 9.08435H86.2871Z" fill="white"/>
<path d="M71.5283 16.9986H60.9802C61.1846 17.9827 61.6343 18.7619 62.4111 19.377C63.1879 19.951 64.1691 20.2381 65.3139 20.2381C66.7857 20.2381 68.0122 19.746 68.9526 18.7619L70.7515 20.5661C70.1382 21.3043 69.2796 21.9604 68.3393 22.3294C67.399 22.6985 66.3769 22.9035 65.2321 22.9035C63.7603 22.9035 62.452 22.6165 61.3481 22.0014C60.2443 21.4273 59.3448 20.6072 58.7316 19.541C58.1183 18.4748 57.8321 17.2856 57.8321 15.9734C57.8321 14.6612 58.1183 13.472 58.7316 12.4469C59.3448 11.3807 60.1625 10.5606 61.2255 9.98649C62.2885 9.4124 63.4741 9.08435 64.7824 9.08435C66.0907 9.08435 67.2763 9.3714 68.2984 9.94549C69.3205 10.5196 70.1382 11.3397 70.7106 12.4059C71.283 13.472 71.5691 14.6612 71.5691 16.0554C71.5691 16.2605 71.5691 16.5885 71.5283 16.9986ZM62.2067 12.5289C61.5117 13.144 61.1028 13.9231 60.9393 14.9073H68.5437C68.4211 13.9231 68.0122 13.144 67.3172 12.5289C66.6222 11.9138 65.7636 11.6267 64.7415 11.6267C63.7603 11.6267 62.9017 11.9138 62.2067 12.5289Z" fill="white"/>
<path d="M51.8219 4.00003H54.97V22.904H51.8219V4.00003Z" fill="white"/>
<path d="M45.2805 9.08435H49.2053L40.6606 17.6957L38.6981 15.7274L45.2805 9.08435Z" fill="white"/>
<path d="M38.6981 15.6871L40.6197 13.7598L49.7368 22.9042H45.8528L38.6981 15.7281V15.6871Z" fill="white"/>
<path d="M39.1481 4.00003H36V22.904H39.1481V4.00003Z" fill="white"/>
<path d="M119.592 13.76H127.656V16.88H119.592V13.76ZM119.88 23H115.992V6.20003H128.688V9.32003H119.88V23ZM136.84 23.288C135.496 23.288 134.208 23.112 132.976 22.76C131.744 22.392 130.752 21.92 130 21.344L131.32 18.416C132.04 18.928 132.888 19.352 133.864 19.688C134.856 20.008 135.856 20.168 136.864 20.168C137.632 20.168 138.248 20.096 138.712 19.952C139.192 19.792 139.544 19.576 139.768 19.304C139.992 19.032 140.104 18.72 140.104 18.368C140.104 17.92 139.928 17.568 139.576 17.312C139.224 17.04 138.76 16.824 138.184 16.664C137.608 16.488 136.968 16.328 136.264 16.184C135.576 16.024 134.88 15.832 134.176 15.608C133.488 15.384 132.856 15.096 132.28 14.744C131.704 14.392 131.232 13.928 130.864 13.352C130.512 12.776 130.336 12.04 130.336 11.144C130.336 10.184 130.592 9.31203 131.104 8.52803C131.632 7.72803 132.416 7.09603 133.456 6.63203C134.512 6.15203 135.832 5.91203 137.416 5.91203C138.472 5.91203 139.512 6.04003 140.536 6.29603C141.56 6.53603 142.464 6.90403 143.248 7.40003L142.048 10.352C141.264 9.90403 140.48 9.57603 139.696 9.36803C138.912 9.14403 138.144 9.03203 137.392 9.03203C136.64 9.03203 136.024 9.12003 135.544 9.29603C135.064 9.47203 134.72 9.70403 134.512 9.99203C134.304 10.264 134.2 10.584 134.2 10.952C134.2 11.384 134.376 11.736 134.728 12.008C135.08 12.264 135.544 12.472 136.12 12.632C136.696 12.792 137.328 12.952 138.016 13.112C138.72 13.272 139.416 13.456 140.104 13.664C140.808 13.872 141.448 14.152 142.024 14.504C142.6 14.856 143.064 15.32 143.416 15.896C143.784 16.472 143.968 17.2 143.968 18.08C143.968 19.024 143.704 19.888 143.176 20.672C142.648 21.456 141.856 22.088 140.8 22.568C139.76 23.048 138.44 23.288 136.84 23.288Z" fill="url(#paint2_linear_18_54)"/>
<defs>
<linearGradient id="paint0_linear_18_54" x1="19.5" y1="13.9583" x2="19.5" y2="23.0181" gradientUnits="userSpaceOnUse">
<stop offset="2.71717e-07" stop-color="#FF4681"/>
<stop offset="1" stop-color="#9B44F6"/>
</linearGradient>
<linearGradient id="paint1_linear_18_54" x1="0.473638" y1="8.97364" x2="19.5037" y2="28.0037" gradientUnits="userSpaceOnUse">
<stop offset="9.43019e-07" stop-color="#FF4681"/>
<stop offset="0.7392" stop-color="#9B44F6"/>
</linearGradient>
<linearGradient id="paint2_linear_18_54" x1="106.615" y1="7.59133" x2="135.596" y2="38.5715" gradientUnits="userSpaceOnUse">
<stop offset="9.43019e-07" stop-color="#FF4681"/>
<stop offset="0.7392" stop-color="#9B44F6"/>
</linearGradient>
</defs>
</svg>
