<svg width="143" height="29" viewBox="0 0 143 29" fill="none" xmlns="http://www.w3.org/2000/svg">
<path d="M108 9.08432V12.1188C107.714 12.0778 107.469 12.0368 107.264 12.0368C105.997 12.0368 105.016 12.4058 104.321 13.144C103.625 13.8821 103.258 14.9072 103.258 16.2604V22.9035H100.028V9.08432H103.094V11.2167C103.993 9.82243 105.629 9.08432 108 9.08432Z" fill="white"/>
<path d="M97.8199 16.9986H87.2718C87.4762 17.9827 87.9259 18.7618 88.7027 19.3769C89.4795 19.951 90.4607 20.2381 91.6055 20.2381C93.0773 20.2381 94.3038 19.746 95.2442 18.7618L97.0431 20.5661C96.4298 21.3042 95.5712 21.9603 94.6309 22.3294C93.6906 22.6984 92.6685 22.9035 91.5237 22.9035C90.0519 22.9035 88.7436 22.6164 87.6397 22.0013C86.5359 21.4272 85.6364 20.6071 85.0232 19.541C84.4099 18.4748 84.1237 17.2856 84.1237 15.9734C84.1237 14.6612 84.4099 13.472 85.0232 12.4468C85.6364 11.3807 86.4541 10.5605 87.5171 9.98646C88.5801 9.41237 89.7657 9.08432 91.074 9.08432C92.3823 9.08432 93.5679 9.37136 94.59 9.94545C95.6121 10.5195 96.4298 11.3397 97.0022 12.4058C97.5746 13.472 97.8608 14.6612 97.8608 16.0554C97.8608 16.2604 97.8608 16.5885 97.8199 16.9986ZM88.5392 12.5289C87.8442 13.144 87.4353 13.9231 87.2718 14.9072H94.8762C94.7536 13.9231 94.3447 13.144 93.6497 12.5289C92.9547 11.9138 92.0961 11.6267 91.074 11.6267C90.0519 11.6267 89.2342 11.9138 88.5392 12.5289Z" fill="white"/>
<path d="M84.2871 9.08432L78.318 22.9035H75.2108L69.2418 9.08432H72.5125L76.8462 19.2539L81.3026 9.08432H84.2871Z" fill="white"/>
<path d="M69.5283 16.9986H58.9802C59.1846 17.9827 59.6343 18.7618 60.4111 19.3769C61.1879 19.951 62.1692 20.2381 63.3139 20.2381C64.7857 20.2381 66.0122 19.746 66.9526 18.7618L68.7515 20.5661C68.1382 21.3042 67.2797 21.9603 66.3393 22.3294C65.399 22.6984 64.3769 22.9035 63.2321 22.9035C61.7603 22.9035 60.452 22.6164 59.3482 22.0013C58.2443 21.4272 57.3448 20.6071 56.7316 19.541C56.1183 18.4748 55.8321 17.2856 55.8321 15.9734C55.8321 14.6612 56.1183 13.472 56.7316 12.4468C57.3448 11.3807 58.1625 10.5605 59.2255 9.98646C60.2885 9.41237 61.4741 9.08432 62.7824 9.08432C64.0907 9.08432 65.2763 9.37136 66.2984 9.94545C67.3205 10.5195 68.1382 11.3397 68.7106 12.4058C69.283 13.472 69.5692 14.6612 69.5692 16.0554C69.5692 16.2604 69.5691 16.5885 69.5283 16.9986ZM60.2067 12.5289C59.5117 13.144 59.1028 13.9231 58.9393 14.9072H66.5437C66.4211 13.9231 66.0122 13.144 65.3172 12.5289C64.6222 11.9138 63.7636 11.6267 62.7415 11.6267C61.7603 11.6267 60.9017 11.9138 60.2067 12.5289Z" fill="white"/>
<path d="M49.8219 4H52.97V22.904H49.8219V4Z" fill="white"/>
<path d="M43.2805 9.08432H47.2053L38.6606 17.6957L36.6981 15.7274L43.2805 9.08432Z" fill="white"/>
<path d="M36.6981 15.6871L38.6197 13.7598L47.7368 22.9042H43.8528L36.6981 15.7281V15.6871Z" fill="white"/>
<path d="M37.1481 4H34V22.904H37.1481V4Z" fill="white"/>
<path d="M117.592 13.76H125.656V16.88H117.592V13.76ZM117.88 23H113.992V6.2H126.688V9.32H117.88V23ZM134.84 23.288C133.496 23.288 132.208 23.112 130.976 22.76C129.744 22.392 128.752 21.92 128 21.344L129.32 18.416C130.04 18.928 130.888 19.352 131.864 19.688C132.856 20.008 133.856 20.168 134.864 20.168C135.632 20.168 136.248 20.096 136.712 19.952C137.192 19.792 137.544 19.576 137.768 19.304C137.992 19.032 138.104 18.72 138.104 18.368C138.104 17.92 137.928 17.568 137.576 17.312C137.224 17.04 136.76 16.824 136.184 16.664C135.608 16.488 134.968 16.328 134.264 16.184C133.576 16.024 132.88 15.832 132.176 15.608C131.488 15.384 130.856 15.096 130.28 14.744C129.704 14.392 129.232 13.928 128.864 13.352C128.512 12.776 128.336 12.04 128.336 11.144C128.336 10.184 128.592 9.312 129.104 8.528C129.632 7.728 130.416 7.096 131.456 6.632C132.512 6.152 133.832 5.912 135.416 5.912C136.472 5.912 137.512 6.04 138.536 6.296C139.56 6.536 140.464 6.904 141.248 7.4L140.048 10.352C139.264 9.904 138.48 9.576 137.696 9.368C136.912 9.144 136.144 9.032 135.392 9.032C134.64 9.032 134.024 9.12 133.544 9.296C133.064 9.472 132.72 9.704 132.512 9.992C132.304 10.264 132.2 10.584 132.2 10.952C132.2 11.384 132.376 11.736 132.728 12.008C133.08 12.264 133.544 12.472 134.12 12.632C134.696 12.792 135.328 12.952 136.016 13.112C136.72 13.272 137.416 13.456 138.104 13.664C138.808 13.872 139.448 14.152 140.024 14.504C140.6 14.856 141.064 15.32 141.416 15.896C141.784 16.472 141.968 17.2 141.968 18.08C141.968 19.024 141.704 19.888 141.176 20.672C140.648 21.456 139.856 22.088 138.8 22.568C137.76 23.048 136.44 23.288 134.84 23.288Z" fill="url(#paint0_linear_24_53)"/>
<path d="M26 21.5556C26 22.2039 25.7366 22.8256 25.2678 23.284C24.7989 23.7425 24.163 24 23.5 24H3.5C2.83696 24 2.20107 23.7425 1.73223 23.284C1.26339 22.8256 1 22.2039 1 21.5556V4.44444C1 3.79614 1.26339 3.17438 1.73223 2.71596C2.20107 2.25754 2.83696 2 3.5 2H8.69231L12.25 5.66667H23.5C24.163 5.66667 24.7989 5.92421 25.2678 6.38263C25.7366 6.84105 26 7.4628 26 8.11111V21.5556Z" fill="white" stroke="white" stroke-width="2" stroke-linecap="round" stroke-linejoin="round"/>
<path d="M23.3154 22.8654H14.0166L23.3154 13.5667V22.8654Z" fill="url(#paint1_linear_24_53)"/>
<path opacity="0.14" d="M23.3154 22.8654L18.5484 18.412L19.1826 17.6994L23.3154 22.8654Z" fill="black"/>
<path d="M23.3154 22.8654H3.6846V3.23462L23.3154 22.8654Z" fill="url(#paint2_linear_24_53)"/>
<defs>
<linearGradient id="paint0_linear_24_53" x1="104.615" y1="7.5913" x2="133.596" y2="38.5714" gradientUnits="userSpaceOnUse">
<stop offset="9.43019e-07" stop-color="#FF4681"/>
<stop offset="0.7392" stop-color="#9B44F6"/>
</linearGradient>
<linearGradient id="paint1_linear_24_53" x1="18.666" y1="13.5235" x2="18.666" y2="22.8841" gradientUnits="userSpaceOnUse">
<stop offset="2.71717e-07" stop-color="#FF4681"/>
<stop offset="1" stop-color="#9B44F6"/>
</linearGradient>
<linearGradient id="paint2_linear_24_53" x1="-0.99206" y1="8.37335" x2="18.6698" y2="28.0352" gradientUnits="userSpaceOnUse">
<stop offset="9.43019e-07" stop-color="#FF4681"/>
<stop offset="0.7392" stop-color="#9B44F6"/>
</linearGradient>
</defs>
</svg>
