<svg width="90" height="29" viewBox="0 0 90 29" fill="none" xmlns="http://www.w3.org/2000/svg">
<path d="M19 23H10L19 14V23Z" fill="url(#paint0_linear_14_11)"/>
<path opacity="0.14" d="M19 23L14.3862 18.6897L15 18L19 23Z" fill="black"/>
<path d="M19 23H0V4L19 23Z" fill="url(#paint1_linear_14_11)"/>
<path d="M29.472 19.16L29.256 14.672L37.296 6.2H41.616L34.368 14L32.208 16.304L29.472 19.16ZM25.992 23V6.2H29.856V23H25.992ZM37.488 23L31.512 15.68L34.056 12.92L42.024 23H37.488ZM43.7576 23V6.2H51.0296C52.5336 6.2 53.8296 6.448 54.9176 6.944C56.0056 7.424 56.8456 8.12 57.4376 9.032C58.0296 9.944 58.3256 11.032 58.3256 12.296C58.3256 13.544 58.0296 14.624 57.4376 15.536C56.8456 16.448 56.0056 17.152 54.9176 17.648C53.8296 18.128 52.5336 18.368 51.0296 18.368H45.9176L47.6456 16.616V23H43.7576ZM47.6456 17.048L45.9176 15.2H50.8136C52.0136 15.2 52.9096 14.944 53.5016 14.432C54.0936 13.92 54.3896 13.208 54.3896 12.296C54.3896 11.368 54.0936 10.648 53.5016 10.136C52.9096 9.624 52.0136 9.368 50.8136 9.368H45.9176L47.6456 7.52V17.048ZM64.7014 13.76H72.7654V16.88H64.7014V13.76ZM64.9894 23H61.1014V6.2H73.7974V9.32H64.9894V23ZM81.9495 23.288C80.6055 23.288 79.3175 23.112 78.0855 22.76C76.8535 22.392 75.8615 21.92 75.1095 21.344L76.4295 18.416C77.1495 18.928 77.9975 19.352 78.9735 19.688C79.9655 20.008 80.9655 20.168 81.9735 20.168C82.7415 20.168 83.3575 20.096 83.8215 19.952C84.3015 19.792 84.6535 19.576 84.8775 19.304C85.1015 19.032 85.2135 18.72 85.2135 18.368C85.2135 17.92 85.0375 17.568 84.6855 17.312C84.3335 17.04 83.8695 16.824 83.2935 16.664C82.7175 16.488 82.0775 16.328 81.3735 16.184C80.6855 16.024 79.9895 15.832 79.2855 15.608C78.5975 15.384 77.9655 15.096 77.3895 14.744C76.8135 14.392 76.3415 13.928 75.9735 13.352C75.6215 12.776 75.4455 12.04 75.4455 11.144C75.4455 10.184 75.7015 9.312 76.2135 8.528C76.7415 7.728 77.5255 7.096 78.5655 6.632C79.6215 6.152 80.9415 5.912 82.5255 5.912C83.5815 5.912 84.6215 6.04 85.6455 6.296C86.6695 6.536 87.5735 6.904 88.3575 7.4L87.1575 10.352C86.3735 9.904 85.5895 9.576 84.8055 9.368C84.0215 9.144 83.2535 9.032 82.5015 9.032C81.7495 9.032 81.1335 9.12 80.6535 9.296C80.1735 9.472 79.8295 9.704 79.6215 9.992C79.4135 10.264 79.3095 10.584 79.3095 10.952C79.3095 11.384 79.4855 11.736 79.8375 12.008C80.1895 12.264 80.6535 12.472 81.2295 12.632C81.8055 12.792 82.4375 12.952 83.1255 13.112C83.8295 13.272 84.5255 13.456 85.2135 13.664C85.9175 13.872 86.5575 14.152 87.1335 14.504C87.7095 14.856 88.1735 15.32 88.5255 15.896C88.8935 16.472 89.0775 17.2 89.0775 18.08C89.0775 19.024 88.8135 19.888 88.2855 20.672C87.7575 21.456 86.9655 22.088 85.9095 22.568C84.8695 23.048 83.5495 23.288 81.9495 23.288Z" fill="url(#paint2_linear_14_11)"/>
<defs>
<linearGradient id="paint0_linear_14_11" x1="14.5" y1="13.9583" x2="14.5" y2="23.0181" gradientUnits="userSpaceOnUse">
<stop offset="2.71717e-07" stop-color="#FF4681"/>
<stop offset="1" stop-color="#9B44F6"/>
</linearGradient>
<linearGradient id="paint1_linear_14_11" x1="-4.52639" y1="8.97361" x2="14.5037" y2="28.0037" gradientUnits="userSpaceOnUse">
<stop offset="9.43019e-07" stop-color="#FF4681"/>
<stop offset="0.7392" stop-color="#9B44F6"/>
</linearGradient>
<linearGradient id="paint2_linear_14_11" x1="8.27674" y1="7.5913" x2="29.6713" y2="56.2824" gradientUnits="userSpaceOnUse">
<stop offset="9.43019e-07" stop-color="#FF4681"/>
<stop offset="0.7392" stop-color="#9B44F6"/>
</linearGradient>
</defs>
</svg>
