<svg width="167" height="29" viewBox="0 0 167 29" fill="none" xmlns="http://www.w3.org/2000/svg">
<path d="M19 23H10L19 14V23Z" fill="url(#paint0_linear_0_5)"/>
<path opacity="0.14" d="M19 23L14.3862 18.6897L15 18L19 23Z" fill="black"/>
<path d="M105 9.08432V12.1188C104.714 12.0778 104.469 12.0368 104.264 12.0368C102.997 12.0368 102.016 12.4058 101.321 13.144C100.625 13.8821 100.258 14.9072 100.258 16.2604V22.9035H97.0277V9.08432H100.094V11.2167C100.993 9.82243 102.629 9.08432 105 9.08432Z" fill="white"/>
<path d="M94.8199 16.9986H84.2718C84.4762 17.9827 84.9259 18.7618 85.7027 19.3769C86.4795 19.951 87.4608 20.2381 88.6055 20.2381C90.0773 20.2381 91.3039 19.746 92.2442 18.7618L94.0431 20.5661C93.4298 21.3042 92.5713 21.9603 91.6309 22.3294C90.6906 22.6984 89.6685 22.9035 88.5237 22.9035C87.0519 22.9035 85.7436 22.6164 84.6398 22.0013C83.5359 21.4272 82.6364 20.6071 82.0232 19.541C81.4099 18.4748 81.1237 17.2856 81.1237 15.9734C81.1237 14.6612 81.4099 13.472 82.0232 12.4468C82.6364 11.3807 83.4541 10.5605 84.5171 9.98646C85.5801 9.41237 86.7657 9.08432 88.074 9.08432C89.3823 9.08432 90.568 9.37136 91.5901 9.94545C92.6122 10.5195 93.4298 11.3397 94.0022 12.4058C94.5746 13.472 94.8608 14.6612 94.8608 16.0554C94.8608 16.2604 94.8608 16.5885 94.8199 16.9986ZM85.5392 12.5289C84.8442 13.144 84.4353 13.9231 84.2718 14.9072H91.8762C91.7536 13.9231 91.3447 13.144 90.6497 12.5289C89.9547 11.9138 89.0961 11.6267 88.074 11.6267C87.0519 11.6267 86.2342 11.9138 85.5392 12.5289Z" fill="white"/>
<path d="M81.2871 9.08432L75.318 22.9035H72.2108L66.2418 9.08432H69.5125L73.8462 19.2539L78.3026 9.08432H81.2871Z" fill="white"/>
<path d="M66.5283 16.9986H55.9802C56.1846 17.9827 56.6343 18.7618 57.4111 19.3769C58.1879 19.951 59.1691 20.2381 60.3139 20.2381C61.7857 20.2381 63.0122 19.746 63.9526 18.7618L65.7515 20.5661C65.1382 21.3042 64.2796 21.9603 63.3393 22.3294C62.399 22.6984 61.3769 22.9035 60.2321 22.9035C58.7603 22.9035 57.452 22.6164 56.3481 22.0013C55.2443 21.4272 54.3448 20.6071 53.7316 19.541C53.1183 18.4748 52.8321 17.2856 52.8321 15.9734C52.8321 14.6612 53.1183 13.472 53.7316 12.4468C54.3448 11.3807 55.1625 10.5605 56.2255 9.98646C57.2885 9.41237 58.4741 9.08432 59.7824 9.08432C61.0907 9.08432 62.2763 9.37136 63.2984 9.94545C64.3205 10.5195 65.1382 11.3397 65.7106 12.4058C66.283 13.472 66.5691 14.6612 66.5691 16.0554C66.5691 16.2604 66.5691 16.5885 66.5283 16.9986ZM57.2067 12.5289C56.5117 13.144 56.1028 13.9231 55.9393 14.9072H63.5437C63.4211 13.9231 63.0122 13.144 62.3172 12.5289C61.6222 11.9138 60.7636 11.6267 59.7415 11.6267C58.7603 11.6267 57.9017 11.9138 57.2067 12.5289Z" fill="white"/>
<path d="M46.8219 4H49.97V22.904H46.8219V4Z" fill="white"/>
<path d="M40.2805 9.08432H44.2053L35.6606 17.6957L33.6981 15.7274L40.2805 9.08432Z" fill="white"/>
<path d="M33.6981 15.6871L35.6197 13.7598L44.7368 22.9042H40.8528L33.6981 15.7281V15.6871Z" fill="white"/>
<path d="M34.1481 4H31V22.904H34.1481V4Z" fill="white"/>
<path d="M19 23H0V4L19 23Z" fill="url(#paint1_linear_0_5)"/>
<path d="M114.592 13.76H122.656V16.88H114.592V13.76ZM114.88 23H110.992V6.2H123.688V9.32H114.88V23ZM126.056 23V10.088H129.8V23H126.056ZM127.928 8.288C127.24 8.288 126.68 8.088 126.248 7.688C125.816 7.288 125.6 6.792 125.6 6.2C125.6 5.608 125.816 5.112 126.248 4.712C126.68 4.312 127.24 4.112 127.928 4.112C128.616 4.112 129.176 4.304 129.608 4.688C130.04 5.056 130.256 5.536 130.256 6.128C130.256 6.752 130.04 7.272 129.608 7.688C129.192 8.088 128.632 8.288 127.928 8.288ZM133.275 23V5.192H137.019V23H133.275ZM146.902 23.192C145.43 23.192 144.134 22.904 143.014 22.328C141.91 21.752 141.054 20.968 140.446 19.976C139.838 18.968 139.534 17.824 139.534 16.544C139.534 15.248 139.83 14.104 140.422 13.112C141.03 12.104 141.854 11.32 142.894 10.76C143.934 10.184 145.11 9.896 146.422 9.896C147.686 9.896 148.822 10.168 149.83 10.712C150.854 11.24 151.662 12.008 152.254 13.016C152.846 14.008 153.142 15.2 153.142 16.592C153.142 16.736 153.134 16.904 153.118 17.096C153.102 17.272 153.086 17.44 153.07 17.6H142.582V15.416H151.102L149.662 16.064C149.662 15.392 149.526 14.808 149.254 14.312C148.982 13.816 148.606 13.432 148.126 13.16C147.646 12.872 147.086 12.728 146.446 12.728C145.806 12.728 145.238 12.872 144.742 13.16C144.262 13.432 143.886 13.824 143.614 14.336C143.342 14.832 143.206 15.424 143.206 16.112V16.688C143.206 17.392 143.358 18.016 143.662 18.56C143.982 19.088 144.422 19.496 144.982 19.784C145.558 20.056 146.23 20.192 146.998 20.192C147.686 20.192 148.286 20.088 148.798 19.88C149.326 19.672 149.806 19.36 150.238 18.944L152.23 21.104C151.638 21.776 150.894 22.296 149.998 22.664C149.102 23.016 148.07 23.192 146.902 23.192ZM159.978 23.192C158.874 23.192 157.81 23.064 156.786 22.808C155.778 22.536 154.978 22.2 154.386 21.8L155.634 19.112C156.226 19.48 156.922 19.784 157.722 20.024C158.538 20.248 159.338 20.36 160.122 20.36C160.986 20.36 161.594 20.256 161.946 20.048C162.314 19.84 162.498 19.552 162.498 19.184C162.498 18.88 162.354 18.656 162.066 18.512C161.794 18.352 161.426 18.232 160.962 18.152C160.498 18.072 159.986 17.992 159.426 17.912C158.882 17.832 158.33 17.728 157.77 17.6C157.21 17.456 156.698 17.248 156.234 16.976C155.77 16.704 155.394 16.336 155.106 15.872C154.834 15.408 154.698 14.808 154.698 14.072C154.698 13.256 154.93 12.536 155.394 11.912C155.874 11.288 156.562 10.8 157.458 10.448C158.354 10.08 159.426 9.896 160.674 9.896C161.554 9.896 162.45 9.992 163.362 10.184C164.274 10.376 165.034 10.656 165.642 11.024L164.394 13.688C163.77 13.32 163.138 13.072 162.498 12.944C161.874 12.8 161.266 12.728 160.674 12.728C159.842 12.728 159.234 12.84 158.85 13.064C158.466 13.288 158.274 13.576 158.274 13.928C158.274 14.248 158.41 14.488 158.682 14.648C158.97 14.808 159.346 14.936 159.81 15.032C160.274 15.128 160.778 15.216 161.322 15.296C161.882 15.36 162.442 15.464 163.002 15.608C163.562 15.752 164.066 15.96 164.514 16.232C164.978 16.488 165.354 16.848 165.642 17.312C165.93 17.76 166.074 18.352 166.074 19.088C166.074 19.888 165.834 20.6 165.354 21.224C164.874 21.832 164.178 22.312 163.266 22.664C162.37 23.016 161.274 23.192 159.978 23.192Z" fill="url(#paint2_linear_0_5)"/>
<defs>
<linearGradient id="paint0_linear_0_5" x1="14.5" y1="13.9583" x2="14.5" y2="23.0181" gradientUnits="userSpaceOnUse">
<stop offset="2.71717e-07" stop-color="#FF4681"/>
<stop offset="1" stop-color="#9B44F6"/>
</linearGradient>
<linearGradient id="paint1_linear_0_5" x1="-4.52639" y1="8.97361" x2="14.5037" y2="28.0037" gradientUnits="userSpaceOnUse">
<stop offset="9.43019e-07" stop-color="#FF4681"/>
<stop offset="0.7392" stop-color="#9B44F6"/>
</linearGradient>
<linearGradient id="paint2_linear_0_5" x1="95.1826" y1="7.5913" x2="118.419" y2="54.0647" gradientUnits="userSpaceOnUse">
<stop offset="9.43019e-07" stop-color="#FF4681"/>
<stop offset="0.7392" stop-color="#9B44F6"/>
</linearGradient>
</defs>
</svg>
