<svg width="141" height="29" viewBox="0 0 141 29" fill="none" xmlns="http://www.w3.org/2000/svg">
<path d="M19.9657 23H10.9657L19.9657 14V23Z" fill="url(#paint0_linear_18_118)"/>
<path opacity="0.14" d="M19.9657 23L15.3519 18.6897L15.9657 18L19.9657 23Z" fill="black"/>
<path d="M19.9657 23H0.965744V4L19.9657 23Z" fill="url(#paint1_linear_18_118)"/>
<path d="M105.966 9.08432V12.1188C105.68 12.0778 105.434 12.0368 105.23 12.0368C103.963 12.0368 102.981 12.4058 102.286 13.144C101.591 13.8821 101.223 14.9072 101.223 16.2604V22.9035H97.9934V9.08432H101.06V11.2167C101.959 9.82244 103.595 9.08432 105.966 9.08432Z" fill="white"/>
<path d="M95.7856 16.9986H85.2375C85.442 17.9827 85.8917 18.7618 86.6685 19.3769C87.4453 19.951 88.4265 20.2381 89.5713 20.2381C91.0431 20.2381 92.2696 19.746 93.2099 18.7618L95.0088 20.5661C94.3956 21.3042 93.537 21.9603 92.5967 22.3294C91.6563 22.6984 90.6342 22.9035 89.4895 22.9035C88.0177 22.9035 86.7094 22.6164 85.6055 22.0013C84.5016 21.4272 83.6022 20.6071 82.9889 19.541C82.3757 18.4748 82.0895 17.2856 82.0895 15.9734C82.0895 14.6612 82.3757 13.472 82.9889 12.4468C83.6022 11.3807 84.4199 10.5606 85.4828 9.98646C86.5458 9.41237 87.7315 9.08432 89.0398 9.08432C90.3481 9.08432 91.5337 9.37137 92.5558 9.94545C93.5779 10.5195 94.3956 11.3397 94.968 12.4058C95.5403 13.472 95.8265 14.6612 95.8265 16.0554C95.8265 16.2604 95.8265 16.5885 95.7856 16.9986ZM86.505 12.5289C85.8099 13.144 85.4011 13.9231 85.2375 14.9072H92.842C92.7193 13.9231 92.3105 13.144 91.6155 12.5289C90.9204 11.9138 90.0619 11.6267 89.0398 11.6267C88.0177 11.6267 87.2 11.9138 86.505 12.5289Z" fill="white"/>
<path d="M82.2528 9.08432L76.2838 22.9035H73.1766L67.2075 9.08432H70.4783L74.8119 19.2539L79.2683 9.08432H82.2528Z" fill="white"/>
<path d="M67.494 16.9986H56.9459C57.1504 17.9827 57.6001 18.7618 58.3769 19.3769C59.1537 19.951 60.1349 20.2381 61.2796 20.2381C62.7515 20.2381 63.978 19.746 64.9183 18.7618L66.7172 20.5661C66.1039 21.3042 65.2454 21.9603 64.3051 22.3294C63.3647 22.6984 62.3426 22.9035 61.1979 22.9035C59.726 22.9035 58.4178 22.6164 57.3139 22.0013C56.21 21.4272 55.3106 20.6071 54.6973 19.541C54.0841 18.4748 53.7979 17.2856 53.7979 15.9734C53.7979 14.6612 54.0841 13.472 54.6973 12.4468C55.3106 11.3807 56.1282 10.5606 57.1912 9.98646C58.2542 9.41237 59.4399 9.08432 60.7481 9.08432C62.0564 9.08432 63.2421 9.37137 64.2642 9.94545C65.2863 10.5195 66.1039 11.3397 66.6763 12.4058C67.2487 13.472 67.5349 14.6612 67.5349 16.0554C67.5349 16.2604 67.5349 16.5885 67.494 16.9986ZM58.1725 12.5289C57.4774 13.144 57.0686 13.9231 56.905 14.9072H64.5095C64.3868 13.9231 63.978 13.144 63.283 12.5289C62.5879 11.9138 61.7294 11.6267 60.7073 11.6267C59.726 11.6267 58.8675 11.9138 58.1725 12.5289Z" fill="white"/>
<path d="M47.7877 4H50.9357V22.904H47.7877V4Z" fill="white"/>
<path d="M41.2462 9.08432H45.1711L36.6263 17.6957L34.6639 15.7274L41.2462 9.08432Z" fill="white"/>
<path d="M34.6639 15.6871L36.5854 13.7598L45.7026 22.9042H41.8186L34.6639 15.7281V15.6871Z" fill="white"/>
<path d="M35.1138 4H31.9657V22.904H35.1138V4Z" fill="white"/>
<path d="M115.558 13.76H123.622V16.88H115.558V13.76ZM115.846 23H111.958V6.2H124.654V9.32H115.846V23ZM132.806 23.288C131.462 23.288 130.174 23.112 128.942 22.76C127.71 22.392 126.718 21.92 125.966 21.344L127.286 18.416C128.006 18.928 128.854 19.352 129.83 19.688C130.822 20.008 131.822 20.168 132.83 20.168C133.598 20.168 134.214 20.096 134.678 19.952C135.158 19.792 135.51 19.576 135.734 19.304C135.958 19.032 136.07 18.72 136.07 18.368C136.07 17.92 135.894 17.568 135.542 17.312C135.19 17.04 134.726 16.824 134.15 16.664C133.574 16.488 132.934 16.328 132.23 16.184C131.542 16.024 130.846 15.832 130.142 15.608C129.454 15.384 128.822 15.096 128.246 14.744C127.67 14.392 127.198 13.928 126.83 13.352C126.478 12.776 126.302 12.04 126.302 11.144C126.302 10.184 126.558 9.312 127.07 8.528C127.598 7.728 128.382 7.096 129.422 6.632C130.478 6.152 131.798 5.912 133.382 5.912C134.438 5.912 135.478 6.04 136.502 6.296C137.526 6.536 138.43 6.904 139.214 7.4L138.014 10.352C137.23 9.904 136.446 9.576 135.662 9.368C134.878 9.144 134.11 9.032 133.358 9.032C132.606 9.032 131.99 9.12 131.51 9.296C131.03 9.472 130.686 9.704 130.478 9.992C130.27 10.264 130.166 10.584 130.166 10.952C130.166 11.384 130.342 11.736 130.694 12.008C131.046 12.264 131.51 12.472 132.086 12.632C132.662 12.792 133.294 12.952 133.982 13.112C134.686 13.272 135.382 13.456 136.07 13.664C136.774 13.872 137.414 14.152 137.99 14.504C138.566 14.856 139.03 15.32 139.382 15.896C139.75 16.472 139.934 17.2 139.934 18.08C139.934 19.024 139.67 19.888 139.142 20.672C138.614 21.456 137.822 22.088 136.766 22.568C135.726 23.048 134.406 23.288 132.806 23.288Z" fill="url(#paint2_linear_18_118)"/>
<defs>
<linearGradient id="paint0_linear_18_118" x1="15.4657" y1="13.9583" x2="15.4657" y2="23.0181" gradientUnits="userSpaceOnUse">
<stop offset="2.71717e-07" stop-color="#FF4681"/>
<stop offset="1" stop-color="#9B44F6"/>
</linearGradient>
<linearGradient id="paint1_linear_18_118" x1="-3.56065" y1="8.97361" x2="15.4694" y2="28.0037" gradientUnits="userSpaceOnUse">
<stop offset="9.43019e-07" stop-color="#FF4681"/>
<stop offset="0.7392" stop-color="#9B44F6"/>
</linearGradient>
<linearGradient id="paint2_linear_18_118" x1="102.581" y1="7.5913" x2="131.562" y2="38.5714" gradientUnits="userSpaceOnUse">
<stop offset="9.43019e-07" stop-color="#FF4681"/>
<stop offset="0.7392" stop-color="#9B44F6"/>
</linearGradient>
</defs>
</svg>
